# xmcd CD database file
#
# Track frame offsets:
#	150
#	10897
#	20600
#	27835
#	40335
#	45715
#	55907
#	67402
#	78102
#	86850
#	100257
#	111467
#	126062
#	137437
#	148227
#	157965
#	162590
#	174510
#	182460
#	210095
#
# Disc length: 2973 seconds
#
# Revision: 0
# Processed by: cddbd v1.5PL3 Copyright (c) Steve Scherf et al.
# Submitted via: CDex 1.50beta8
#
DISCID=110b9b14
DTITLE=ブルーなのすこやか音楽くらぶ - 元気いっぱい！ワクワクどうしよう　Disc２
DYEAR=2002
DGENRE=Salsa
TTITLE0=はじめての僕デス
TTITLE1=山口さんちのツトム君
TTITLE2=きしゃぽっぽ
TTITLE3=きみのなまえ
TTITLE4=おおきなくりのきのしたで
TTITLE5=しょうじょうじのたぬきばやし
TTITLE6=てんしのはねのマーチ
TTITLE7=赤鬼と青鬼のタンゴ
TTITLE8=ホ！ホ！ホ！
TTITLE9=パジャマでおじゃま
TTITLE10=おふろのうた
TTITLE11=おなかの大きな王子さま
TTITLE12=へんなＡＢＣ
TTITLE13=ドレミのうた
TTITLE14=バナナのおやこ
TTITLE15=おもちゃのマーチ
TTITLE16=てのひらをたいように
TTITLE17=やまのおんがくか
TTITLE18=おもいでのアルバム
TTITLE19=切手のないおくりもの
EXTD=YEAR: 2002.03.06
EXTT0=
EXTT1=
EXTT2=
EXTT3=
EXTT4=
EXTT5=
EXTT6=
EXTT7=
EXTT8=
EXTT9=
EXTT10=
EXTT11=
EXTT12=
EXTT13=
EXTT14=
EXTT15=
EXTT16=
EXTT17=
EXTT18=
EXTT19=
PLAYORDER=
